# xmcd
#
# Track frame offsets: 
#        150
#        11611
#        25953
#        41437
#        58182
#        78649
#        94196
#        106227
#        118693
#        138747
#        149237
#        167052
#        180187
#        195346
#        223249
#        242362
#        253348
#        267383
#        278971
#        288865
#        302048
#        314916
#        329289
#
# Disc length: 4667 seconds
#
# Revision: 2
# Processed by: cddbd v1.5.2PL0 Copyright (c) Steve Scherf et al.
# Submitted via: ExactAudioCopy v0.95b4
#
DISCID=61123917
DTITLE=Various Artist - Movers!
DYEAR=2006
DGENRE=Funky-Soul
TTITLE0=Nathaniel Mayer With The Fortune Braves - I Want Love And Affe
TTITLE0=ction
TTITLE1=Rabbit's and Carrot's - Las Cuatro Culturas
TTITLE2=Dennys Coffey And The Detroit Guitar Band - Guitar Big Band
TTITLE3=Andre Williams - Chicken Thighs
TTITLE4=Soul Searchers - Think
TTITLE5=Eddy Senay - Reverend Lowdown
TTITLE6=Soul Survivors - Respect
TTITLE7=Johnny Barfield and The Men Of S.O.U.L. - Soul Butter
TTITLE8=The Lolas - Soul 70
TTITLE9=Frank Miller Y Su Hispania Soul - Melenas Club
TTITLE10=Jean Paul 'El Troglodita' - Everyting's Gonna Change
TTITLE11=Banda Uniao Black - Na Palma Da Mano
TTITLE12=Willie Bobo and The Bo Gents - Shut Up And Pay Attention
TTITLE13=Enrique Delgado Con Los Destellos - Onsta La Yerbita
TTITLE14=Lucho Macedo - Guayaba
TTITLE15=Orquesta Aragón - Zoológico Negro
TTITLE16=La Logia Sarabanda - Cajón De Castañas
TTITLE17=Dogliotti - Negro En Sol
TTITLE18=New Swing Sextet - Think Drink
TTITLE19=Jaime Delgado Aparicio Y Su Orquesta Contemporánea - Sexy Sur
TTITLE19=f
TTITLE20=Aldemaro Romero - Monna Bell
TTITLE21=Luiz Eca and Familia Sagrada - Yemele
TTITLE22=Che - O Eterno Pecado Horizontal
EXTD=
EXTT0=
EXTT1=
EXTT2=
EXTT3=
EXTT4=
EXTT5=
EXTT6=
EXTT7=
EXTT8=
EXTT9=
EXTT10=
EXTT11=
EXTT12=
EXTT13=
EXTT14=
EXTT15=
EXTT16=
EXTT17=
EXTT18=
EXTT19=
EXTT20=
EXTT21=
EXTT22=
PLAYORDER=
